# xmcd
#
# Track frame offsets:
#	150
#	24914
#	42151
#	56519
#	71560
#	86612
#	108659
#	122503
#	141382
#	159942
#	177550
#	194133
#
# Disc length: 2888 seconds
#
# Revision: 0
# Processed by: cddbd v1.4PL0 Copyright (c) Steve Scherf et al.
# Submitted via: audiograbber 1.82.02
#
DISCID=a80b460c
DTITLE=Катя Огонёк - Дорожный роман
DYEAR=2003
DGENRE=Шансон
TTITLE0=Дорожный роман
TTITLE1=Алюминевый крестик
TTITLE2=Далеко-Далёко
TTITLE3=Дочка
TTITLE4=До свидания
TTITLE5=Письмо на зону
TTITLE6=Счастье зечки
TTITLE7=Подруженька -2
TTITLE8=Лагерное танго
TTITLE9=На дальней пристани
TTITLE10=Волк
TTITLE11=Здравствуй любовь
EXTD=
EXTT0=
EXTT1=
EXTT2=
EXTT3=
EXTT4=
EXTT5=
EXTT6=
EXTT7=
EXTT8=
EXTT9=
EXTT10=
EXTT11=
PLAYORDER=
